<?xml version="1.0" encoding="UTF-8"?>
<svg xmlns="http://www.w3.org/2000/svg" version="1.1" viewBox="0 0 800 800">
  <defs>
    <style>
      .cls-1 {
        fill: #00b9ae;
        fill-rule: evenodd;
      }
    </style>
  </defs>
  <!-- Generator: Adobe Illustrator 28.6.0, SVG Export Plug-In . SVG Version: 1.2.0 Build 709)  -->
  <g>
    <g id="Ebene_1">
      <path class="cls-1" d="M640.2,206.9c12.8-13.2,12.4-34.3-.8-47.1-12.9-12.5-33.4-12.5-46.3,0l-193.1,193.1-193.1-193.1c-13.2-12.8-34.3-12.4-47.1.8-12.5,12.9-12.5,33.4,0,46.3l193.1,193.1-193.1,193.1c-13.2,12.8-13.6,33.9-.8,47.1,12.8,13.2,33.9,13.6,47.1.8.3-.3.6-.5.8-.8l193.1-193.1,193.1,193.1c13.2,12.8,34.3,12.4,47.1-.8,12.5-12.9,12.5-33.4,0-46.3l-193.1-193.1,193.1-193.1Z"/>
    </g>
  </g>
</svg>