<?xml version="1.0" encoding="UTF-8"?>
<svg xmlns="http://www.w3.org/2000/svg" version="1.1" viewBox="0 0 800 800">
  <defs>
    <style>
      .cls-1 {
        fill: #00b9ae;
      }
    </style>
  </defs>
  <!-- Generator: Adobe Illustrator 28.6.0, SVG Export Plug-In . SVG Version: 1.2.0 Build 709)  -->
  <g>
    <g id="Ebene_1">
      <path class="cls-1" d="M433.3,600c-8.5,0-17.1-3.3-23.6-9.8-13-13-13-34.1,0-47.1l109.8-109.8H200c-18.4,0-33.3-14.9-33.3-33.3s14.9-33.3,33.3-33.3h319.5l-109.8-109.8c-13-13-13-34.1,0-47.1,13-13,34.1-13,47.1,0l166.7,166.7c3.5,3.5,6,7.5,7.6,11.8,1.1,2.9,1.8,6.1,2,9.3,0,0,0,0,0,0,0,0,0,0,0,0,0,.8,0,1.6,0,2.3s0,1.6,0,2.3h0c0,0,0,0,0,0-.2,3.3-.9,6.4-2,9.3-1.6,4.3-4.2,8.3-7.6,11.8l-166.7,166.7c-6.5,6.5-15,9.8-23.6,9.8Z"/>
    </g>
  </g>
</svg>