<?xml version="1.0" encoding="UTF-8"?>
<svg xmlns="http://www.w3.org/2000/svg" version="1.1" viewBox="0 0 800 800">
  <defs>
    <style>
      .cls-1 {
        fill: none;
      }

      .cls-2 {
        fill: #00b9ae;
      }
    </style>
  </defs>
  <!-- Generator: Adobe Illustrator 28.6.0, SVG Export Plug-In . SVG Version: 1.2.0 Build 709)  -->
  <g>
    <g id="icon">
      <path class="cls-2" d="M200,750h-100c-27.6,0-50-22.4-50-50v-100c0-27.6,22.4-50,50-50h100c27.6,0,50,22.4,50,50v100c0,27.6-22.4,50-50,50ZM100,600v100h100v-100h-100Z"/>
      <path class="cls-2" d="M450,750h-100c-27.6,0-50-22.4-50-50v-100c0-27.6,22.4-50,50-50h100c27.6,0,50,22.4,50,50v100c0,27.6-22.4,50-50,50ZM350,600v100h100v-100h-100Z"/>
      <path class="cls-2" d="M700,750h-100c-27.6,0-50-22.4-50-50v-100c0-27.6,22.4-50,50-50h100c27.6,0,50,22.4,50,50v100c0,27.6-22.4,50-50,50ZM600,600v100h100v-100h-100Z"/>
      <path class="cls-2" d="M700,500H100c-27.6,0-50-22.4-50-50V100c0-27.6,22.4-50,50-50h600c27.6,0,50,22.4,50,50v350c0,27.6-22.4,50-50,50ZM100,100v350h600V100H100Z"/>
      <rect id="_Transparent_Rectangle_" class="cls-1" width="800" height="800"/>
    </g>
  </g>
</svg>