<?xml version="1.0" encoding="UTF-8"?>
<svg xmlns="http://www.w3.org/2000/svg" version="1.1" viewBox="0 0 800 800">
  <defs>
    <style>
      .cls-1 {
        fill: #00b9ae;
      }
    </style>
  </defs>
  <!-- Generator: Adobe Illustrator 28.6.0, SVG Export Plug-In . SVG Version: 1.2.0 Build 709)  -->
  <g>
    <g id="Ebene_1">
      <g>
        <path class="cls-1" d="M333.3,591.7c-69,0-133.9-26.9-182.7-75.7-48.8-48.8-75.7-113.7-75.7-182.7s26.9-133.9,75.7-182.7c48.8-48.8,113.7-75.7,182.7-75.7s133.9,26.9,182.7,75.7c48.8,48.8,75.7,113.7,75.7,182.7s-26.9,133.9-75.7,182.7c-48.8,48.8-113.7,75.7-182.7,75.7ZM333.3,125c-114.9,0-208.3,93.5-208.3,208.3s93.5,208.3,208.3,208.3,208.3-93.5,208.3-208.3-93.5-208.3-208.3-208.3Z"/>
        <path class="cls-1" d="M700,725c-6.4,0-12.8-2.4-17.7-7.3l-201.7-201.7c-9.8-9.8-9.8-25.6,0-35.4,9.8-9.8,25.6-9.8,35.4,0l201.7,201.7c9.8,9.8,9.8,25.6,0,35.4s-11.3,7.3-17.7,7.3Z"/>
      </g>
    </g>
  </g>
</svg>