<?xml version="1.0" encoding="UTF-8"?>
<svg id="Try_5_FINAL_" data-name="Try 5 [FINAL]" xmlns="http://www.w3.org/2000/svg" viewBox="0 0 5649.91 2378.52">
  <defs>
    <style>
      .cls-1 {
        fill: #037171;
      }

      .cls-1, .cls-2 {
        stroke-width: 0px;
      }

      .cls-2 {
        fill: #00b9ae;
      }
    </style>
  </defs>
  <g>
    <path class="cls-1" d="M1212.21,1120.26h194.6l514.91,785.28v-785.28h196.32v1136.58h-194.6l-514.91-785.28v785.28h-196.32v-1136.58Z"/>
    <path class="cls-2" d="M1212.21,1120.26h194.6l1.72,967.82h709.5v168.77h-905.82v-1136.58Z"/>
  </g>
  <g>
    <path class="cls-2" d="M2623.58,1473.19h105.92v384.12h198.42v81.91h-304.33v-466.03Z"/>
    <path class="cls-2" d="M2966.03,1860.84c0-72.02,74.85-85.44,136.98-93.21,38.84-4.94,56.49-7.77,56.49-34.6,0-24.01-14.83-36.72-47.31-36.72s-57.19,12.71-67.79,36.01l-63.55-37.42c24.01-47.31,79.08-70.61,143.34-70.61,79.79,0,131.34,37.42,131.34,120.74v194.18h-93.21v-43.07c-17.65,33.19-49.43,50.13-94.62,50.13-62.84,0-101.68-32.48-101.68-85.44ZM3160.92,1825.54v-33.89c-8.47,14.83-21.89,19.06-46.6,22.6-24.01,2.82-56.49,7.77-56.49,38.84,0,21.18,13.42,34.6,42.37,34.6,35.31,0,60.73-19.06,60.73-62.14Z"/>
    <path class="cls-2" d="M3345.92,1631.36h33.19c34.6,0,48.02-.71,63.55-5.65v56.49c19.77-36.01,58.61-57.9,108.03-57.9,46.6,0,81.2,21.18,96.03,62.84,20.48-39.54,60.73-62.84,114.39-62.84,64.26,0,105.21,38.13,105.21,112.27v202.65h-96.74v-181.47c0-38.13-14.83-51.55-43.07-51.55-43.78,0-72.02,31.07-72.02,84.73v148.28h-96.74v-181.47c0-38.13-14.83-51.55-43.07-51.55-43.78,0-72.02,31.07-72.02,84.73v148.28h-96.74v-307.86Z"/>
    <path class="cls-2" d="M3955.99,1631.36h33.19c33.89,0,48.02-.71,63.55-5.65v60.73c15.53-35.31,52.96-62.14,96.74-62.14,77.67,0,148.28,72.73,148.28,160.99s-70.61,160.99-148.28,160.99c-43.07,0-81.2-26.83-96.74-62.14v203.36h-96.74v-456.14ZM4198.18,1785.29c0-47.31-33.19-81.2-74.85-81.2-38.13,0-73.43,33.89-73.43,81.2s35.31,81.2,73.43,81.2c41.66,0,74.85-33.19,74.85-81.2Z"/>
    <path class="cls-2" d="M4365.52,1473.19h33.19c33.89,0,48.02-1.41,63.55-5.65v471.68h-96.74v-466.03Z"/>
    <path class="cls-1" d="M4558.99,1473.19h93.91l197.71,295.15v-295.15h96.03v466.03h-93.91l-197.71-295.15v295.15h-96.03v-466.03Z"/>
    <path class="cls-1" d="M5020.78,1786c0-86.85,76.26-161.7,162.4-161.7s154.64,70.61,154.64,176.53h-219.6c3.53,40.95,31.77,73.43,81.91,73.43,36.72,0,58.61-15.53,69.9-40.95l66.37,36.72c-23.3,45.9-69.9,76.26-141.22,76.26-100.27,0-174.41-71.32-174.41-160.29ZM5118.22,1750.69h122.86c-2.12-35.31-24.01-62.84-59.31-62.84-37.42,0-58.61,28.24-63.55,62.84Z"/>
    <path class="cls-1" d="M5414.07,1820.59v-115.1h-52.25v-63.55l4.94-.71c49.43-7.06,76.26-37.42,76.26-87.56v-18.36h4.24c28.95,0,45.9-.71,63.55-5.65v101.68h112.27v74.14h-112.27v129.92c0,26.13,12,39.54,29.66,39.54s33.89-16.24,43.78-38.13l65.67,40.95c-18.36,43.78-61.43,68.49-112.27,68.49-74.14,0-123.57-49.43-123.57-125.69Z"/>
  </g>
</svg>