<?xml version="1.0" encoding="UTF-8"?>
<svg xmlns="http://www.w3.org/2000/svg" version="1.1" xmlns:xlink="http://www.w3.org/1999/xlink" viewBox="0 0 512 512">
  <defs>
    <style>
      .cls-1 {
        fill: #03312e;
      }

      .cls-2 {
        fill: none;
      }

      .cls-3 {
        clip-path: url(#clippath);
      }
    </style>
    <clipPath id="clippath">
      <rect class="cls-2" width="512" height="512"/>
    </clipPath>
  </defs>
  <!-- Generator: Adobe Illustrator 28.6.0, SVG Export Plug-In . SVG Version: 1.2.0 Build 709)  -->
  <g>
    <g id="Ebene_1">
      <g class="cls-3">
        <g>
          <path class="cls-1" d="M455,57c-76-76-199.8-76-275.8,0-65.1,65.1-74.5,165.1-28.1,240.3L13.2,435.2c-17.5,17.6-17.5,46.1,0,63.7,17.5,17.5,46.1,17.5,63.7,0l63.7-63.7s0,0,0,0l74.2-74.2c75.4,46.5,175.4,36.8,240.3-28.1,76.1-76,76.1-199.8,0-275.8h0ZM55.6,477.6c-5.8,5.9-15.4,5.9-21.2,0-5.8-5.9-5.8-15.4,0-21.2l10.6-10.6,21.2,21.2-10.6,10.6ZM87.4,445.8l-21.2-21.2,21.2-21.2,21.2,21.2-21.2,21.2ZM129.9,403.4l-21.2-21.2,60.3-60.3c3.2,3.8,6.6,7.4,10.2,11,3.6,3.6,7.2,7,11,10.2l-60.3,60.3ZM433.7,311.7c-64.3,64.3-169,64.3-233.4,0-64.3-64.3-64.3-169.1,0-233.4,64.3-64.3,169-64.4,233.4,0,64.3,64.3,64.3,169.1,0,233.4Z"/>
          <path class="cls-1" d="M412.5,99.5c-52.7-52.7-138.3-52.7-191,0-52.7,52.7-52.7,138.3,0,191,52.7,52.7,138.3,52.7,191,0,52.7-52.7,52.7-138.3,0-191h0ZM391.3,269.2c-40.9,40.9-107.6,40.9-148.5,0-40.9-40.9-40.9-107.6,0-148.5,40.9-40.9,107.6-41,148.5,0,40.9,40.9,40.9,107.6,0,148.5Z"/>
          <path class="cls-1" d="M380.9,154.4c-7.4-3.7-16.4-.7-20.1,6.7l-16.6,33.2-16.6-33.2c-2.5-5.1-7.7-8.3-13.4-8.3s-10.9,3.2-13.4,8.3l-16.6,33.2-16.6-33.2c-3.7-7.4-12.7-10.4-20.1-6.7-7.4,3.7-10.4,12.7-6.7,20.1l30,60c2.5,5.1,7.7,8.3,13.4,8.3s10.9-3.2,13.4-8.3l16.6-33.2,16.6,33.2c2.5,5.1,7.7,8.3,13.4,8.3s10.9-3.2,13.4-8.3l30-60c3.7-7.4.7-16.4-6.7-20.1Z"/>
        </g>
      </g>
    </g>
  </g>
</svg>