<?xml version="1.0" encoding="UTF-8"?>
<svg xmlns="http://www.w3.org/2000/svg" version="1.1" viewBox="0 0 800 800">
  <defs>
    <style>
      .cls-1 {
        fill: #03312e;
      }
    </style>
  </defs>
  <!-- Generator: Adobe Illustrator 28.6.0, SVG Export Plug-In . SVG Version: 1.2.0 Build 709)  -->
  <g>
    <g id="Ebene_1">
      <path class="cls-1" d="M185.8,69.1c8.7,4.2,14.2,12.9,14.2,22.5,0,27.7,10.4,43.6,23.4,63l.9,1.4c11.1,16.5,25.6,38.1,25.6,68.9s-15.9,59.3-40.1,75.8c6.4,5.3,12,11.9,16.9,19.8,15.9,25.7,23.3,64.9,23.3,121.2s-7.7,125.6-20.2,180.3c-6.2,27.2-13.9,52.3-23.1,71.2-4.6,9.4-10.1,18.5-17,25.6-6.8,7.1-17.4,14.5-31.4,14.5s-24.6-7.5-31.4-14.5c-6.9-7.1-12.5-16.3-17-25.6-9.2-18.9-16.9-44-23.1-71.2-12.5-54.7-20.2-123.2-20.2-180.3s7.4-95.6,23.3-121.2c4.9-7.9,10.5-14.4,16.9-19.8-24.2-16.5-40.1-44.3-40.1-75.8s0-33.4,12.8-60.6c12.5-26.7,36.2-57.3,79.9-92.2,7.5-6,17.8-7.2,26.4-3ZM116.7,225h0c0,23.1,18.7,41.7,41.7,41.7s41.7-18.7,41.7-41.7-6.2-24.8-18.1-42.5l-.4-.6c-7.6-11.3-16.6-24.8-23.1-42-18.1,18.4-28.1,33.7-33.7,45.7-8.1,17.2-8.1,29.4-8.1,39.3ZM132.5,346.9c-8.3,13.4-15.8,40.8-15.8,94.9s7.3,118.2,18.9,169.2c5.9,25.7,12.5,46.5,19.3,60.4,1.2,2.6,2.4,4.7,3.5,6.5,1.1-1.8,2.2-3.9,3.5-6.5,6.8-13.9,13.4-34.7,19.3-60.4,11.6-51,18.9-115.8,18.9-169.2s-7.5-81.6-15.8-94.9c-3.8-6.1-7.5-9-10.8-10.6-3.6-1.7-8.3-2.8-15-2.8s-11.4,1-15,2.8c-3.3,1.6-7.1,4.5-10.8,10.6Z"/>
      <path class="cls-1" d="M333.3,497.2c-17.9-3-35.1-8.4-51.1-15.9.7-13.5,1.1-26.8,1.1-39.5s0-11.6-.2-17.2c15,10.1,32,17.6,50.2,21.7v-96.3c0-27.6,22.4-50,50-50h133.3c0-82.8-67.2-150-150-150s-65.9,11.5-91.1,30.9c-6.7-18.4-16.2-32.5-22.8-42.3l-1.3-2c32.6-23,72.3-36.5,115.2-36.5,110.5,0,200,89.5,200,200h116.7c27.6,0,50,22.4,50,50v300c0,27.6-22.4,50-50,50h-300c-27.6,0-50-22.4-50-50v-152.8ZM383.3,499.3v150.7h300v-300h-123c-20.9,81.1-91.3,142.2-177,149.3ZM508.1,350h-124.8v99.1c58-6.4,106-45.8,124.8-99.1Z"/>
    </g>
  </g>
</svg>