<?xml version="1.0" encoding="UTF-8"?>
<svg xmlns="http://www.w3.org/2000/svg" version="1.1" viewBox="0 0 512 512">
  <defs>
    <style>
      .cls-1 {
        fill: #03312e;
      }
    </style>
  </defs>
  <!-- Generator: Adobe Illustrator 28.6.0, SVG Export Plug-In . SVG Version: 1.2.0 Build 709)  -->
  <g>
    <g id="Ebene_1">
      <path class="cls-1" d="M376,512c24.8,0,45-20.2,45-45V45c0-24.8-20.2-45-45-45h-240c-24.8,0-45,20.2-45,45v422c0,24.8,20.2,45,45,45h240ZM121,45c0-8.3,6.7-15,15-15h240c8.3,0,15,6.7,15,15v15H121v-15ZM121,90h270v332H121V90ZM121,467v-15h270v15c0,8.3-6.7,15-15,15h-240c-8.3,0-15-6.7-15-15Z"/>
      <path class="cls-1" d="M256,121c-57.9,0-105,47.1-105,105s47,105,105,105,105-47.2,105-105-47.1-105-105-105ZM256,301c-13.6,0-26.4-3.7-37.4-10,8.2-12.3,22.2-20,37.4-20s29.2,7.7,37.4,20c-11,6.4-23.8,10-37.4,10ZM241,226c0-8.3,6.7-15,15-15s15,6.7,15,15-6.7,15-15,15-15-6.7-15-15ZM316,271c-6.1-8.1-13.8-14.9-22.6-20,4.8-7.2,7.6-15.8,7.6-25,0-24.8-20.2-45-45-45s-45,20.2-45,45,2.8,17.9,7.6,25c-8.8,5-16.5,11.8-22.6,20-9.4-12.5-15-28.1-15-45,0-41.4,33.6-75,75-75s75,33.6,75,75-5.6,32.4-15,45Z"/>
      <path class="cls-1" d="M271,376c0,8.3-6.7,15-15,15s-15-6.7-15-15,6.7-15,15-15,15,6.7,15,15Z"/>
      <path class="cls-1" d="M331,376c0,8.3-6.7,15-15,15s-15-6.7-15-15,6.7-15,15-15,15,6.7,15,15Z"/>
      <path class="cls-1" d="M211,376c0,8.3-6.7,15-15,15s-15-6.7-15-15,6.7-15,15-15,15,6.7,15,15Z"/>
    </g>
  </g>
</svg>