<?xml version="1.0" encoding="UTF-8"?>
<svg xmlns="http://www.w3.org/2000/svg" version="1.1" xmlns:xlink="http://www.w3.org/1999/xlink" viewBox="0 0 512 512">
  <defs>
    <style>
      .cls-1 {
        fill: #03312e;
      }

      .cls-2 {
        fill: none;
      }

      .cls-3 {
        clip-path: url(#clippath);
      }
    </style>
    <clipPath id="clippath">
      <rect class="cls-2" width="512" height="512"/>
    </clipPath>
  </defs>
  <!-- Generator: Adobe Illustrator 28.6.0, SVG Export Plug-In . SVG Version: 1.2.0 Build 709)  -->
  <g>
    <g id="Ebene_1">
      <g class="cls-3">
        <path class="cls-1" d="M498.8,55.6l-42.4-42.4c-17.5-17.5-46.1-17.5-63.6,0-15.1,15.1-120.6,120.6-136.7,136.7l-92.8-92.8c-1.5-1.5-3.2-2.6-5.2-3.4L20.4,1C14.9-1.1,8.6.2,4.4,4.4.2,8.6-1.1,14.8,1,20.4l52.7,137.5s0,0,0,0c.7,1.8,1.8,3.6,3.4,5.2l92.8,92.8c-19.8,19.8-121.5,121.5-136.7,136.7-17.6,17.6-17.6,46.1,0,63.6l42.4,42.4c17.5,17.5,46.1,17.5,63.6,0l136.7-136.7,136.7,136.7c17.5,17.5,46.1,17.5,63.6,0l42.4-42.4c17.6-17.6,17.6-46.1,0-63.6l-136.7-136.7,136.7-136.8c17.6-17.6,17.6-46,0-63.6h0ZM41,41l84.6,32.4-52.2,52.2L41,41ZM98,477.6c-5.8,5.8-15.4,5.8-21.2,0l-42.4-42.4c-5.9-5.9-5.9-15.3,0-21.2l8.8-8.8,31.8,31.8c5.9,5.9,15.4,5.9,21.2,0,5.9-5.9,5.9-15.4,0-21.2l-31.8-31.8,21.2-21.2,10.6,10.6c5.9,5.9,15.4,5.9,21.2,0,5.9-5.9,5.9-15.4,0-21.2l-10.6-10.6,21.2-21.2,31.8,31.8c5.9,5.9,15.4,5.9,21.2,0,5.9-5.9,5.9-15.4,0-21.2l-31.8-31.8,21.8-21.8,63.6,63.6-136.7,136.7ZM88.9,152.5l21.2-21.2,282.3,282.3-21.2,21.2L88.9,152.5ZM477.6,414c5.9,5.9,5.9,15.3,0,21.2l-42.4,42.4c-5.8,5.8-15.4,5.8-21.2,0l-21.5-21.6c5.8-5.8,57.1-57.1,63.6-63.6l21.5,21.6ZM434.8,371.2l-21.2,21.2L131.3,110.1l21.2-21.2,282.3,282.3ZM477.6,98l-136.7,136.7-63.6-63.6,20.6-20.6,31.8,31.8c5.9,5.9,15.4,5.9,21.2,0,5.9-5.9,5.9-15.4,0-21.2l-31.8-31.8,21.2-21.2,10.6,10.6c5.9,5.9,15.4,5.9,21.2,0,5.9-5.9,5.9-15.4,0-21.2l-10.6-10.6,21.2-21.2,31.8,31.8c5.9,5.9,15.4,5.9,21.2,0,5.9-5.9,5.9-15.4,0-21.2l-31.8-31.8,10.1-10.1c5.9-5.8,15.4-5.8,21.2,0l42.4,42.4c5.9,5.9,5.9,15.4,0,21.2h0Z"/>
      </g>
    </g>
  </g>
</svg>