<?xml version="1.0" encoding="UTF-8"?>
<svg xmlns="http://www.w3.org/2000/svg" version="1.1" viewBox="0 0 512 512">
  <defs>
    <style>
      .cls-1 {
        fill: #03312e;
      }
    </style>
  </defs>
  <!-- Generator: Adobe Illustrator 28.6.0, SVG Export Plug-In . SVG Version: 1.2.0 Build 709)  -->
  <g>
    <g id="Ebene_1">
      <path class="cls-1" d="M237,1.6c-63.6,5.7-117.9,30.6-162,74.4C35.4,115.2,10.7,164.7,2.4,221.5c-2.5,16.7-2.5,53.4,0,69.5,4.3,28.7,11.5,51.9,23.6,76.6,25.1,51.6,65.7,92.1,117.5,117.5,126.9,62.1,280.6,9.4,342.5-117.5,12.1-24.7,19.3-47.9,23.6-76.6,2.5-16.1,2.5-52.8,0-69.5-8.3-56.8-33-106.3-72.6-145.5C397,36.3,348.7,12.1,292,3.5c-10.1-1.5-45.5-2.7-55-1.9ZM274.4,83.5c30.2,8.3,51.9,36.3,51.9,67-.1,10.3-1.7,17.1-7.3,29-7.1,15.5-28.4,46.2-38.1,55-2.3,2-6.7,4.9-9.8,6.4-4.8,2.2-6.9,2.6-15.1,2.6-15.6,0-22.5-4.3-37-23.1-15.5-20-27.3-40.7-31.5-54.9-2.5-8.5-2.3-21.9.4-31.8,7.2-26.3,27-45.2,53.7-51.1,8.4-1.9,24.1-1.5,32.8.9ZM156,231.1c10.6,2.9,22.4,8.9,37.5,19,32.9,22.1,40.5,31.4,40.5,49.7s-4.9,22-19.5,33.6c-21.4,16.8-43.4,29.8-58,34.2-9.5,2.9-25.7,2.4-36-1-19.7-6.7-33.8-19.3-42.5-38.1-6-12.9-7.9-24.7-6.1-37.9,2.4-16.8,8.3-28.7,20.6-41.2,6.6-6.6,9.8-8.9,17.5-12.8,15.7-7.7,31.3-9.6,46-5.5ZM385.5,230.5c3.9.8,11.3,3.6,16.5,6.1,15.8,7.8,28.8,22.5,34.6,39.2,6.3,18.1,5.4,35.5-2.6,52.7-8.7,18.8-22.8,31.4-42.5,38.1-6.6,2.2-9.9,2.7-19,2.8-12.7.1-18.1-1.2-32-7.9-16.9-8.1-50.1-31.9-55.7-40-9.2-13.3-9.2-31.9.2-44.2,4.5-6,16.7-15.9,33.5-27.1,28.4-19.1,45.7-24.2,67-19.7Z"/>
    </g>
  </g>
</svg>