<?xml version="1.0" encoding="UTF-8"?>
<svg xmlns="http://www.w3.org/2000/svg" version="1.1" viewBox="0 0 512 512">
  <defs>
    <style>
      .cls-1 {
        fill: #03312e;
      }
    </style>
  </defs>
  <!-- Generator: Adobe Illustrator 28.6.0, SVG Export Plug-In . SVG Version: 1.2.0 Build 709)  -->
  <g>
    <g id="Ebene_1">
      <path class="cls-1" d="M497,346h-15V91c0-24.8-20.2-45-45-45H75c-24.8,0-44.9,20.2-44.9,45v255h-15c-8.3,0-15.1,6.7-15.1,15v30c0,41.4,33.6,75,75,75h362c41.4,0,75-33.6,75-75v-30c0-8.3-6.7-15-15-15ZM60,91c0-8.3,6.7-15,15-15h362c8.3,0,15.1,6.7,15.1,15v255h-105.1c-8.3,0-14.9,6.7-14.9,15h0v15h-152.1v-15c0-8.3-6.7-15-15-15H60V91ZM482.1,391c0,24.8-20.3,45-45.1,45H75c-24.8,0-45-20.2-45-45v-15h120.1v15c0,8.3,6.6,15,14.9,15h182c8.3,0,15-6.7,15-15v-15h120.1v15Z"/>
      <path class="cls-1" d="M422,301c0-8.3-6.7-15-15-15H141.4l84.5-83.8,49.4,49.4c5.8,5.8,15.3,5.9,21.1,0l61-60.1c5.9,2.8,12.5,4.4,19.5,4.4,24.8,0,45-20.2,45-45s-20.2-45-45-45-45,20.2-45,45,1.6,13.4,4.4,19.3l-50.3,49.6-49.5-49.5c-5.8-5.8-15.3-5.9-21.2,0l-95.4,94.6V121c0-8.3-6.7-15-15-15s-15,6.7-15,15v180c0,8.4,6.8,15,15,15h302c8.3,0,15-6.7,15-15h0ZM377,136c8.3,0,15,6.7,15,15s-6.7,15-15,15-15-6.7-15-15,6.7-15,15-15Z"/>
    </g>
  </g>
</svg>