<?xml version="1.0" encoding="UTF-8"?>
<svg xmlns="http://www.w3.org/2000/svg" version="1.1" viewBox="0 0 800 800">
  <defs>
    <style>
      .cls-1 {
        fill: #03312e;
      }
    </style>
  </defs>
  <!-- Generator: Adobe Illustrator 28.6.0, SVG Export Plug-In . SVG Version: 1.2.0 Build 709)  -->
  <g>
    <g id="Ebene_1">
      <path class="cls-1" d="M195.2,332.8c-18.7,0-34.5,6.5-47.6,19.6s-19.6,28.9-19.6,47.6,6.5,34.5,19.6,47.6,28.9,19.6,47.6,19.6,34.5-6.5,47.6-19.6,19.6-28.9,19.6-47.6-6.5-34.5-19.6-47.6-28.9-19.6-47.6-19.6ZM400,332.8c-18.7,0-34.5,6.5-47.6,19.6s-19.6,28.9-19.6,47.6,6.5,34.5,19.6,47.6,28.8,19.6,47.2,19.6,34.3-6.5,47.6-19.6,20-28.9,20-47.6-6.7-34.5-20-47.6-29.3-19.6-48-19.6h.8ZM604.8,332.8c-18.7,0-34.5,6.5-47.6,19.6s-19.6,28.9-19.6,47.6,6.5,34.5,19.6,47.6,28.9,19.6,47.6,19.6,34.5-6.5,47.6-19.6,19.6-28.9,19.6-47.6-6.5-34.5-19.6-47.6-28.9-19.6-47.6-19.6Z"/>
    </g>
  </g>
</svg>