<?xml version="1.0" encoding="UTF-8"?>
<svg xmlns="http://www.w3.org/2000/svg" version="1.1" viewBox="0 0 512 512">
  <defs>
    <style>
      .cls-1 {
        fill: #03312e;
      }
    </style>
  </defs>
  <!-- Generator: Adobe Illustrator 28.6.0, SVG Export Plug-In . SVG Version: 1.2.0 Build 709)  -->
  <g>
    <g id="Ebene_1">
      <path class="cls-1" d="M467,0H45C20.2,0,0,20.2,0,45v300c0,24.8,20.2,45,45,45h130.2l-20,60h-49.2c-8.3,0-15,6.7-15,15s6.7,15,15,15h300c8.3,0,15-6.7,15-15s-6.7-15-15-15h-49.2l-20-60h130.2c24.8,0,45-20.2,45-45V45c0-24.8-20.2-45-45-45ZM186.8,450l20-60h98.4l20,60h-138.4ZM482,345c0,8.3-6.7,15-15,15H45c-8.3,0-15-6.7-15-15v-15h452v15ZM163.6,213.8l-13.6-13.6,21.2-21.2,13.6,13.6c4.8,4.8,12.3,5.8,18.2,2.3,8.4-5,17.4-8.7,26.7-11.1,6.6-1.7,11.2-7.7,11.2-14.5v-19.2h30v19.2c0,6.8,4.6,12.8,11.2,14.5,9.3,2.4,18.3,6.2,26.7,11.1,5.9,3.5,13.4,2.5,18.2-2.3l13.6-13.6,21.2,21.2-13.6,13.6c-4.8,4.8-5.8,12.3-2.3,18.2,5,8.4,8.7,17.4,11.1,26.7,1.7,6.6,7.7,11.2,14.5,11.2h19.2v30h-61.5c1-4.9,1.5-9.9,1.5-15,0-41.4-33.6-75-75-75s-75,33.6-75,75,.5,10.1,1.5,15h-61.5v-30h19.2c6.8,0,12.8-4.6,14.5-11.2,2.4-9.3,6.2-18.3,11.1-26.7,3.5-5.9,2.5-13.4-2.3-18.2h0ZM301,285c0,5.1-.9,10.2-2.6,15h-84.8c-1.7-4.8-2.6-9.9-2.6-15,0-24.8,20.2-45,45-45s45,20.2,45,45ZM482,300h-61v-45c0-8.3-6.7-15-15-15h-23.2c-1.6-4.4-3.3-8.6-5.3-12.8l16.4-16.4c5.9-5.9,5.9-15.4,0-21.2l-42.4-42.4c-2.8-2.8-6.6-4.4-10.6-4.4s-7.8,1.6-10.6,4.4l-16.4,16.4c-4.2-2-8.5-3.8-12.8-5.3v-23.2c0-8.3-6.7-15-15-15h-60c-8.3,0-15,6.7-15,15v23.2c-4.4,1.6-8.6,3.3-12.8,5.3l-16.4-16.4c-2.8-2.8-6.6-4.4-10.6-4.4s-7.8,1.6-10.6,4.4l-42.4,42.4c-5.9,5.9-5.9,15.4,0,21.2l16.4,16.4c-2,4.2-3.8,8.5-5.3,12.8h-23.2c-8.3,0-15,6.7-15,15v45H30V45c0-8.3,6.7-15,15-15h422c8.3,0,15,6.7,15,15v255Z"/>
      <path class="cls-1" d="M406,60c-24.8,0-45,20.2-45,45s20.2,45,45,45,45-20.2,45-45-20.2-45-45-45ZM406,120c-8.3,0-15-6.7-15-15s6.7-15,15-15,15,6.7,15,15-6.7,15-15,15Z"/>
    </g>
  </g>
</svg>